<svg xmlns="http://www.w3.org/2000/svg" xmlns:xlink="http://www.w3.org/1999/xlink" contentStyleType="text/css" height="619px" preserveAspectRatio="none" style="width:740px;height:619px;background:#FFFFFF;" version="1.1" viewBox="0 0 740 619" width="740px" zoomAndPan="magnify"><defs/><g><line style="stroke:#181818;stroke-width:0.5;stroke-dasharray:5.0,5.0;" x1="42" x2="42" y1="81.2969" y2="538.2891"/><line style="stroke:#181818;stroke-width:0.5;stroke-dasharray:5.0,5.0;" x1="287.9692" x2="287.9692" y1="81.2969" y2="538.2891"/><line style="stroke:#181818;stroke-width:0.5;stroke-dasharray:5.0,5.0;" x1="368.7964" x2="368.7964" y1="81.2969" y2="538.2891"/><line style="stroke:#181818;stroke-width:0.5;stroke-dasharray:5.0,5.0;" x1="526.3345" x2="526.3345" y1="81.2969" y2="538.2891"/><line style="stroke:#181818;stroke-width:0.5;stroke-dasharray:5.0,5.0;" x1="715.938" x2="715.938" y1="81.2969" y2="538.2891"/><text fill="#000000" font-family="sans-serif" font-size="14" lengthAdjust="spacing" textLength="69.3438" x="5" y="77.9951">Gebruiker</text><ellipse cx="42.6719" cy="13.5" fill="#FFFF00" rx="8" ry="8" style="stroke:#181818;stroke-width:0.5;"/><path d="M42.6719,21.5 L42.6719,48.5 M29.6719,29.5 L55.6719,29.5 M42.6719,48.5 L29.6719,63.5 M42.6719,48.5 L55.6719,63.5 " fill="none" style="stroke:#181818;stroke-width:0.5;"/><text fill="#000000" font-family="sans-serif" font-size="14" lengthAdjust="spacing" textLength="69.3438" x="5" y="550.2842">Gebruiker</text><ellipse cx="42.6719" cy="562.0859" fill="#FFFF00" rx="8" ry="8" style="stroke:#181818;stroke-width:0.5;"/><path d="M42.6719,570.0859 L42.6719,597.0859 M29.6719,578.0859 L55.6719,578.0859 M42.6719,597.0859 L29.6719,612.0859 M42.6719,597.0859 L55.6719,612.0859 " fill="none" style="stroke:#181818;stroke-width:0.5;"/><rect fill="#E2E2F0" height="30.2969" rx="2.5" ry="2.5" style="stroke:#181818;stroke-width:0.5;" width="84.8271" x="245.9692" y="50"/><text fill="#000000" font-family="sans-serif" font-size="14" lengthAdjust="spacing" textLength="70.8271" x="252.9692" y="69.9951">Carbidbus</text><rect fill="#E2E2F0" height="30.2969" rx="2.5" ry="2.5" style="stroke:#181818;stroke-width:0.5;" width="84.8271" x="245.9692" y="537.2891"/><text fill="#000000" font-family="sans-serif" font-size="14" lengthAdjust="spacing" textLength="70.8271" x="252.9692" y="557.2842">Carbidbus</text><rect fill="#0000FF" height="30.2969" rx="2.5" ry="2.5" style="stroke:#181818;stroke-width:0.5;" width="56.2803" x="340.7964" y="50"/><text fill="#000000" font-family="sans-serif" font-size="14" lengthAdjust="spacing" textLength="42.2803" x="347.7964" y="69.9951">Water</text><rect fill="#0000FF" height="30.2969" rx="2.5" ry="2.5" style="stroke:#181818;stroke-width:0.5;" width="56.2803" x="340.7964" y="537.2891"/><text fill="#000000" font-family="sans-serif" font-size="14" lengthAdjust="spacing" textLength="42.2803" x="347.7964" y="557.2842">Water</text><rect fill="#808080" height="30.2969" rx="2.5" ry="2.5" style="stroke:#181818;stroke-width:0.5;" width="59.7734" x="497.3345" y="50"/><text fill="#000000" font-family="sans-serif" font-size="14" lengthAdjust="spacing" textLength="45.7734" x="504.3345" y="69.9951">Carbid</text><rect fill="#808080" height="30.2969" rx="2.5" ry="2.5" style="stroke:#181818;stroke-width:0.5;" width="59.7734" x="497.3345" y="537.2891"/><text fill="#000000" font-family="sans-serif" font-size="14" lengthAdjust="spacing" textLength="45.7734" x="504.3345" y="557.2842">Carbid</text><rect fill="#FFA500" height="30.2969" rx="2.5" ry="2.5" style="stroke:#181818;stroke-width:0.5;" width="36.0732" x="697.938" y="50"/><text fill="#000000" font-family="sans-serif" font-size="14" lengthAdjust="spacing" textLength="22.0732" x="704.938" y="69.9951">Bal</text><rect fill="#FFA500" height="30.2969" rx="2.5" ry="2.5" style="stroke:#181818;stroke-width:0.5;" width="36.0732" x="697.938" y="537.2891"/><text fill="#000000" font-family="sans-serif" font-size="14" lengthAdjust="spacing" textLength="22.0732" x="704.938" y="557.2842">Bal</text><polygon fill="#181818" points="276.3828,108.4297,286.3828,112.4297,276.3828,116.4297,280.3828,112.4297" style="stroke:#181818;stroke-width:1.0;"/><line style="stroke:#181818;stroke-width:1.0;" x1="42.6719" x2="282.3828" y1="112.4297" y2="112.4297"/><text fill="#000000" font-family="sans-serif" font-size="13" lengthAdjust="spacing" textLength="221.7109" x="49.6719" y="107.3638">Verwijder resten van eerder schot</text><polygon fill="#181818" points="515.2212,137.5625,525.2212,141.5625,515.2212,145.5625,519.2212,141.5625" style="stroke:#181818;stroke-width:1.0;"/><line style="stroke:#181818;stroke-width:1.0;" x1="42.6719" x2="521.2212" y1="141.5625" y2="141.5625"/><text fill="#000000" font-family="sans-serif" font-size="13" lengthAdjust="spacing" textLength="145.8374" x="49.6719" y="136.4966">Voeg nieuw carbid toe</text><polygon fill="#181818" points="53.6719,166.6953,43.6719,170.6953,53.6719,174.6953,49.6719,170.6953" style="stroke:#181818;stroke-width:1.0;"/><line style="stroke:#181818;stroke-width:1.0;" x1="47.6719" x2="526.2212" y1="170.6953" y2="170.6953"/><text fill="#000000" font-family="sans-serif" font-size="13" lengthAdjust="spacing" textLength="138.6011" x="59.6719" y="165.6294">Carbid is toegevoegd</text><polygon fill="#181818" points="356.9365,195.8281,366.9365,199.8281,356.9365,203.8281,360.9365,199.8281" style="stroke:#181818;stroke-width:1.0;"/><line style="stroke:#181818;stroke-width:1.0;" x1="42.6719" x2="362.9365" y1="199.8281" y2="199.8281"/><text fill="#000000" font-family="sans-serif" font-size="13" lengthAdjust="spacing" textLength="155.1494" x="49.6719" y="194.7622">Voeg water toe aan bus</text><polygon fill="#181818" points="515.2212,224.9609,525.2212,228.9609,515.2212,232.9609,519.2212,228.9609" style="stroke:#181818;stroke-width:1.0;"/><line style="stroke:#181818;stroke-width:1.0;" x1="368.9365" x2="521.2212" y1="228.9609" y2="228.9609"/><text fill="#000000" font-family="sans-serif" font-size="13" lengthAdjust="spacing" textLength="134.2847" x="375.9365" y="223.895">Reageert met carbid</text><polygon fill="#181818" points="299.3828,254.0938,289.3828,258.0938,299.3828,262.0938,295.3828,258.0938" style="stroke:#181818;stroke-width:1.0;"/><line style="stroke:#181818;stroke-width:1.0;" x1="293.3828" x2="526.2212" y1="258.0938" y2="258.0938"/><text fill="#000000" font-family="sans-serif" font-size="13" lengthAdjust="spacing" textLength="78.5713" x="305.3828" y="253.0278">Gasvorming</text><polygon fill="#181818" points="53.6719,283.2266,43.6719,287.2266,53.6719,291.2266,49.6719,287.2266" style="stroke:#181818;stroke-width:1.0;"/><line style="stroke:#181818;stroke-width:1.0;" x1="47.6719" x2="526.2212" y1="287.2266" y2="287.2266"/><text fill="#000000" font-family="sans-serif" font-size="13" lengthAdjust="spacing" textLength="173.2656" x="59.6719" y="282.1606">Genoeg water toegevoegd</text><polygon fill="#181818" points="276.3828,312.3594,286.3828,316.3594,276.3828,320.3594,280.3828,316.3594" style="stroke:#181818;stroke-width:1.0;"/><line style="stroke:#181818;stroke-width:1.0;" x1="42.6719" x2="282.3828" y1="316.3594" y2="316.3594"/><text fill="#000000" font-family="sans-serif" font-size="13" lengthAdjust="spacing" textLength="106.5962" x="49.6719" y="311.2935">Plaats bal in bus</text><polygon fill="#181818" points="299.3828,341.4922,289.3828,345.4922,299.3828,349.4922,295.3828,345.4922" style="stroke:#181818;stroke-width:1.0;"/><line style="stroke:#181818;stroke-width:1.0;" x1="293.3828" x2="714.9746" y1="345.4922" y2="345.4922"/><text fill="#000000" font-family="sans-serif" font-size="13" lengthAdjust="spacing" textLength="164.8486" x="305.3828" y="340.4263">Bal sluit bus luchtdicht af</text><polygon fill="#181818" points="276.3828,370.625,286.3828,374.625,276.3828,378.625,280.3828,374.625" style="stroke:#181818;stroke-width:1.0;"/><line style="stroke:#181818;stroke-width:1.0;" x1="42.6719" x2="282.3828" y1="374.625" y2="374.625"/><text fill="#000000" font-family="sans-serif" font-size="13" lengthAdjust="spacing" textLength="122.3892" x="49.6719" y="369.5591">Houdt vlam bij bus</text><polygon fill="#181818" points="515.2212,399.7578,525.2212,403.7578,515.2212,407.7578,519.2212,403.7578" style="stroke:#181818;stroke-width:1.0;"/><line style="stroke:#181818;stroke-width:1.0;" x1="288.3828" x2="521.2212" y1="403.7578" y2="403.7578"/><text fill="#000000" font-family="sans-serif" font-size="13" lengthAdjust="spacing" textLength="108.418" x="295.3828" y="398.6919">Carbid ontsteekt</text><polygon fill="#181818" points="703.9746,428.8906,713.9746,432.8906,703.9746,436.8906,707.9746,432.8906" style="stroke:#181818;stroke-width:1.0;"/><line style="stroke:#181818;stroke-width:1.0;" x1="527.2212" x2="709.9746" y1="432.8906" y2="432.8906"/><text fill="#000000" font-family="sans-serif" font-size="13" lengthAdjust="spacing" textLength="164.7534" x="534.2212" y="427.8247">Bal wordt weg geschoten</text><polygon fill="#181818" points="53.6719,458.0234,43.6719,462.0234,53.6719,466.0234,49.6719,462.0234" style="stroke:#181818;stroke-width:1.0;"/><line style="stroke:#181818;stroke-width:1.0;" x1="47.6719" x2="526.2212" y1="462.0234" y2="462.0234"/><text fill="#000000" font-family="sans-serif" font-size="13" lengthAdjust="spacing" textLength="133.9673" x="59.6719" y="456.9575">Harde knal hoorbaar</text><polygon fill="#181818" points="276.3828,487.1563,286.3828,491.1563,276.3828,495.1563,280.3828,491.1563" style="stroke:#181818;stroke-width:1.0;"/><line style="stroke:#181818;stroke-width:1.0;" x1="42.6719" x2="282.3828" y1="491.1563" y2="491.1563"/><text fill="#000000" font-family="sans-serif" font-size="13" lengthAdjust="spacing" textLength="155.6953" x="49.6719" y="486.0903">Controleer bus na schot</text><polygon fill="#181818" points="703.9746,516.2891,713.9746,520.2891,703.9746,524.2891,707.9746,520.2891" style="stroke:#181818;stroke-width:1.0;"/><line style="stroke:#181818;stroke-width:1.0;" x1="42.6719" x2="709.9746" y1="520.2891" y2="520.2891"/><text fill="#000000" font-family="sans-serif" font-size="13" lengthAdjust="spacing" textLength="73.6201" x="49.6719" y="515.2231">Haal bal op</text><!--SRC=[RL4nRiCm3Dpz2Y8UElK36Ggq6PAnwD3EjCqwIXGfe2WR-NqfoGbifuj4aQUx8ucjU8RDdXgEvaoy0GmG0p7KDxBMZzKLMKnhhkW4DZlandHD31cdzxByWp9HZ2c2kh6H_cF8c3Q7KFUCjoNe0sqHG0krPtGzLIyBn3kw87GtZFSNr4nTLUK6Nj-IGTZ2D_5eJfscc1JcO407H9moeJrwUU0dH_h5Km_EK1plEV5KJQ42yuSjb6R0X5JkQT2ZUv2L4KnSvQ6ev3KFhcJceb-4lTeIk91CsPbawMMFOV1yCQv_ThCdjv1Q6oeCdnPHocXDSPB2Hrb73y568_bjOtkKpkW1-BiYElZO2GmMBz2OKs7ImhoZQJxUYSwTpZ9lHtMAskXPUKPrtbDUXsxekRa3whxWxFJ3qNjk47dbPwSoxArEC2SShfPR50-eLmhzzGy0]--></g></svg>