<svg xmlns="http://www.w3.org/2000/svg" xmlns:xlink="http://www.w3.org/1999/xlink" contentStyleType="text/css" height="382px" preserveAspectRatio="none" style="width:340px;height:382px;background:#FFFFFF;" version="1.1" viewBox="0 0 340 382" width="340px" zoomAndPan="magnify"><defs/><g><line style="stroke:#181818;stroke-width:0.5;stroke-dasharray:5.0,5.0;" x1="41" x2="41" y1="36.2969" y2="347.625"/><line style="stroke:#181818;stroke-width:0.5;stroke-dasharray:5.0,5.0;" x1="114.3037" x2="114.3037" y1="36.2969" y2="347.625"/><line style="stroke:#181818;stroke-width:0.5;stroke-dasharray:5.0,5.0;" x1="286.9316" x2="286.9316" y1="36.2969" y2="347.625"/><rect fill="#FF0000" height="30.2969" rx="2.5" ry="2.5" style="stroke:#181818;stroke-width:0.5;" width="72.3037" x="5" y="5"/><text fill="#000000" font-family="sans-serif" font-size="14" lengthAdjust="spacing" textLength="58.3037" x="12" y="24.9951">BusTask</text><rect fill="#FF0000" height="30.2969" rx="2.5" ry="2.5" style="stroke:#181818;stroke-width:0.5;" width="72.3037" x="5" y="346.625"/><text fill="#000000" font-family="sans-serif" font-size="14" lengthAdjust="spacing" textLength="58.3037" x="12" y="366.6201">BusTask</text><rect fill="#808080" height="30.2969" rx="2.5" ry="2.5" style="stroke:#181818;stroke-width:0.5;" width="54.4482" x="87.3037" y="5"/><text fill="#000000" font-family="sans-serif" font-size="14" lengthAdjust="spacing" textLength="40.4482" x="94.3037" y="24.9951">Timer</text><rect fill="#808080" height="30.2969" rx="2.5" ry="2.5" style="stroke:#181818;stroke-width:0.5;" width="54.4482" x="87.3037" y="346.625"/><text fill="#000000" font-family="sans-serif" font-size="14" lengthAdjust="spacing" textLength="40.4482" x="94.3037" y="366.6201">Timer</text><rect fill="#008000" height="30.2969" rx="2.5" ry="2.5" style="stroke:#181818;stroke-width:0.5;" width="94.999" x="239.9316" y="5"/><text fill="#000000" font-family="sans-serif" font-size="14" lengthAdjust="spacing" textLength="80.999" x="246.9316" y="24.9951">GVL_Carbid</text><rect fill="#008000" height="30.2969" rx="2.5" ry="2.5" style="stroke:#181818;stroke-width:0.5;" width="94.999" x="239.9316" y="346.625"/><text fill="#000000" font-family="sans-serif" font-size="14" lengthAdjust="spacing" textLength="80.999" x="246.9316" y="366.6201">GVL_Carbid</text><polygon fill="#181818" points="275.4312,63.4297,285.4312,67.4297,275.4312,71.4297,279.4312,67.4297" style="stroke:#181818;stroke-width:1.0;"/><line style="stroke:#181818;stroke-width:1.0;" x1="41.1519" x2="281.4312" y1="67.4297" y2="67.4297"/><text fill="#000000" font-family="sans-serif" font-size="13" lengthAdjust="spacing" textLength="99.4932" x="48.1519" y="62.3638">VoegCarbidToe</text><polygon fill="#181818" points="125.5278,92.5625,115.5278,96.5625,125.5278,100.5625,121.5278,96.5625" style="stroke:#181818;stroke-width:1.0;"/><line style="stroke:#181818;stroke-width:1.0;" x1="119.5278" x2="286.4312" y1="96.5625" y2="96.5625"/><text fill="#000000" font-family="sans-serif" font-size="13" lengthAdjust="spacing" textLength="90.5874" x="131.5278" y="91.4966">Start 2s delay</text><polygon fill="#181818" points="275.4312,121.6953,285.4312,125.6953,275.4312,129.6953,279.4312,125.6953" style="stroke:#181818;stroke-width:1.0;"/><line style="stroke:#181818;stroke-width:1.0;stroke-dasharray:2.0,2.0;" x1="114.5278" x2="281.4312" y1="125.6953" y2="125.6953"/><text fill="#000000" font-family="sans-serif" font-size="13" lengthAdjust="spacing" textLength="148.9033" x="121.5278" y="120.6294">CarbidAdded == TRUE</text><polygon fill="#181818" points="275.4312,150.8281,285.4312,154.8281,275.4312,158.8281,279.4312,154.8281" style="stroke:#181818;stroke-width:1.0;"/><line style="stroke:#181818;stroke-width:1.0;" x1="41.1519" x2="281.4312" y1="154.8281" y2="154.8281"/><text fill="#000000" font-family="sans-serif" font-size="13" lengthAdjust="spacing" textLength="96.2495" x="48.1519" y="149.7622">VoegWaterToe</text><polygon fill="#181818" points="125.5278,179.9609,115.5278,183.9609,125.5278,187.9609,121.5278,183.9609" style="stroke:#181818;stroke-width:1.0;"/><line style="stroke:#181818;stroke-width:1.0;" x1="119.5278" x2="286.4312" y1="183.9609" y2="183.9609"/><text fill="#000000" font-family="sans-serif" font-size="13" lengthAdjust="spacing" textLength="90.5874" x="131.5278" y="178.895">Start 2s delay</text><polygon fill="#181818" points="275.4312,209.0938,285.4312,213.0938,275.4312,217.0938,279.4312,213.0938" style="stroke:#181818;stroke-width:1.0;"/><line style="stroke:#181818;stroke-width:1.0;stroke-dasharray:2.0,2.0;" x1="114.5278" x2="281.4312" y1="213.0938" y2="213.0938"/><text fill="#000000" font-family="sans-serif" font-size="13" lengthAdjust="spacing" textLength="145.6597" x="121.5278" y="208.0278">WaterAdded == TRUE</text><polygon fill="#181818" points="275.4312,238.2266,285.4312,242.2266,275.4312,246.2266,279.4312,242.2266" style="stroke:#181818;stroke-width:1.0;"/><line style="stroke:#181818;stroke-width:1.0;" x1="41.1519" x2="281.4312" y1="242.2266" y2="242.2266"/><text fill="#000000" font-family="sans-serif" font-size="13" lengthAdjust="spacing" textLength="111.5283" x="48.1519" y="237.1606">StartGasVorming</text><polygon fill="#181818" points="125.5278,267.3594,115.5278,271.3594,125.5278,275.3594,121.5278,271.3594" style="stroke:#181818;stroke-width:1.0;"/><line style="stroke:#181818;stroke-width:1.0;" x1="119.5278" x2="286.4312" y1="271.3594" y2="271.3594"/><text fill="#000000" font-family="sans-serif" font-size="13" lengthAdjust="spacing" textLength="98.8584" x="131.5278" y="266.2935">Start 10s delay</text><polygon fill="#181818" points="275.4312,296.4922,285.4312,300.4922,275.4312,304.4922,279.4312,300.4922" style="stroke:#181818;stroke-width:1.0;"/><line style="stroke:#181818;stroke-width:1.0;stroke-dasharray:2.0,2.0;" x1="114.5278" x2="281.4312" y1="300.4922" y2="300.4922"/><text fill="#000000" font-family="sans-serif" font-size="13" lengthAdjust="spacing" textLength="138.7026" x="121.5278" y="295.4263">EnoughGas == TRUE</text><polygon fill="#181818" points="275.4312,325.625,285.4312,329.625,275.4312,333.625,279.4312,329.625" style="stroke:#181818;stroke-width:1.0;"/><line style="stroke:#181818;stroke-width:1.0;" x1="41.1519" x2="281.4312" y1="329.625" y2="329.625"/><text fill="#000000" font-family="sans-serif" font-size="13" lengthAdjust="spacing" textLength="146.0215" x="48.1519" y="324.5591">ReadyToFire == TRUE</text><!--SRC=[fOqn2y8m48Nt_8e3vu8w5Yger2vEDTPHJdFKe4tA9HtwxoqDXUhG2cvtxps-hqRs-gvhD1vsZPFedh1WKg8U5L9NnB0ecTgFF2kErptoJQk-92F4m8WsupQ6mb8P7cb9ZAfk6F0nd7p7XhK3HIziHOYZRr8ujagHWYG1cP_JQUq5FV6_rXxoexGdPkWAovKsvQHtjPmHfyOsvQEZpNjpGjLAUz1Cm_WD]--></g></svg>