<svg xmlns="http://www.w3.org/2000/svg" xmlns:xlink="http://www.w3.org/1999/xlink" contentStyleType="text/css" height="502px" preserveAspectRatio="none" style="width:303px;height:502px;background:#FFFFFF;" version="1.1" viewBox="0 0 303 502" width="303px" zoomAndPan="magnify"><defs/><g><line style="stroke:#181818;stroke-width:0.5;stroke-dasharray:5.0,5.0;" x1="42" x2="42" y1="81.2969" y2="421.7578"/><line style="stroke:#181818;stroke-width:0.5;stroke-dasharray:5.0,5.0;" x1="148.0371" x2="148.0371" y1="81.2969" y2="421.7578"/><line style="stroke:#181818;stroke-width:0.5;stroke-dasharray:5.0,5.0;" x1="261.291" x2="261.291" y1="81.2969" y2="421.7578"/><text fill="#000000" font-family="sans-serif" font-size="14" lengthAdjust="spacing" textLength="69.3438" x="5" y="77.9951">Gebruiker</text><ellipse cx="42.6719" cy="13.5" fill="#FFFF00" rx="8" ry="8" style="stroke:#181818;stroke-width:0.5;"/><path d="M42.6719,21.5 L42.6719,48.5 M29.6719,29.5 L55.6719,29.5 M42.6719,48.5 L29.6719,63.5 M42.6719,48.5 L55.6719,63.5 " fill="none" style="stroke:#181818;stroke-width:0.5;"/><text fill="#000000" font-family="sans-serif" font-size="14" lengthAdjust="spacing" textLength="69.3438" x="5" y="433.7529">Gebruiker</text><ellipse cx="42.6719" cy="445.5547" fill="#FFFF00" rx="8" ry="8" style="stroke:#181818;stroke-width:0.5;"/><path d="M42.6719,453.5547 L42.6719,480.5547 M29.6719,461.5547 L55.6719,461.5547 M42.6719,480.5547 L29.6719,495.5547 M42.6719,480.5547 L55.6719,495.5547 " fill="none" style="stroke:#181818;stroke-width:0.5;"/><rect fill="#0000FF" height="30.2969" rx="2.5" ry="2.5" style="stroke:#181818;stroke-width:0.5;" width="78.4424" x="109.0371" y="50"/><text fill="#000000" font-family="sans-serif" font-size="14" lengthAdjust="spacing" textLength="64.4424" x="116.0371" y="69.9951">UserTask</text><rect fill="#0000FF" height="30.2969" rx="2.5" ry="2.5" style="stroke:#181818;stroke-width:0.5;" width="78.4424" x="109.0371" y="420.7578"/><text fill="#000000" font-family="sans-serif" font-size="14" lengthAdjust="spacing" textLength="64.4424" x="116.0371" y="440.7529">UserTask</text><rect fill="#FF0000" height="30.2969" rx="2.5" ry="2.5" style="stroke:#181818;stroke-width:0.5;" width="72.3037" x="225.291" y="50"/><text fill="#000000" font-family="sans-serif" font-size="14" lengthAdjust="spacing" textLength="58.3037" x="232.291" y="69.9951">BusTask</text><rect fill="#FF0000" height="30.2969" rx="2.5" ry="2.5" style="stroke:#181818;stroke-width:0.5;" width="72.3037" x="225.291" y="420.7578"/><text fill="#000000" font-family="sans-serif" font-size="14" lengthAdjust="spacing" textLength="58.3037" x="232.291" y="440.7529">BusTask</text><polygon fill="#181818" points="136.2583,108.4297,146.2583,112.4297,136.2583,116.4297,140.2583,112.4297" style="stroke:#181818;stroke-width:1.0;"/><line style="stroke:#181818;stroke-width:1.0;" x1="42.6719" x2="142.2583" y1="112.4297" y2="112.4297"/><text fill="#000000" font-family="sans-serif" font-size="13" lengthAdjust="spacing" textLength="81.5864" x="49.6719" y="107.3638">StartProcess</text><polygon fill="#181818" points="249.4429,137.5625,259.4429,141.5625,249.4429,145.5625,253.4429,141.5625" style="stroke:#181818;stroke-width:1.0;"/><line style="stroke:#181818;stroke-width:1.0;" x1="148.2583" x2="255.4429" y1="141.5625" y2="141.5625"/><text fill="#000000" font-family="sans-serif" font-size="13" lengthAdjust="spacing" textLength="67.9009" x="155.2583" y="136.4966">AddCarbid</text><polygon fill="#181818" points="159.2583,166.6953,149.2583,170.6953,159.2583,174.6953,155.2583,170.6953" style="stroke:#181818;stroke-width:1.0;"/><line style="stroke:#181818;stroke-width:1.0;" x1="153.2583" x2="260.4429" y1="170.6953" y2="170.6953"/><text fill="#000000" font-family="sans-serif" font-size="13" lengthAdjust="spacing" textLength="84.1509" x="165.2583" y="165.6294">CarbidAdded</text><polygon fill="#181818" points="249.4429,195.8281,259.4429,199.8281,249.4429,203.8281,253.4429,199.8281" style="stroke:#181818;stroke-width:1.0;"/><line style="stroke:#181818;stroke-width:1.0;" x1="148.2583" x2="255.4429" y1="199.8281" y2="199.8281"/><text fill="#000000" font-family="sans-serif" font-size="13" lengthAdjust="spacing" textLength="64.6572" x="155.2583" y="194.7622">AddWater</text><polygon fill="#181818" points="159.2583,224.9609,149.2583,228.9609,159.2583,232.9609,155.2583,228.9609" style="stroke:#181818;stroke-width:1.0;"/><line style="stroke:#181818;stroke-width:1.0;" x1="153.2583" x2="260.4429" y1="228.9609" y2="228.9609"/><text fill="#000000" font-family="sans-serif" font-size="13" lengthAdjust="spacing" textLength="80.9072" x="165.2583" y="223.895">WaterAdded</text><polygon fill="#181818" points="249.4429,254.0938,259.4429,258.0938,249.4429,262.0938,253.4429,258.0938" style="stroke:#181818;stroke-width:1.0;"/><line style="stroke:#181818;stroke-width:1.0;" x1="148.2583" x2="255.4429" y1="258.0938" y2="258.0938"/><text fill="#000000" font-family="sans-serif" font-size="13" lengthAdjust="spacing" textLength="66.9233" x="155.2583" y="253.0278">BallPlaced</text><polygon fill="#181818" points="159.2583,283.2266,149.2583,287.2266,159.2583,291.2266,155.2583,287.2266" style="stroke:#181818;stroke-width:1.0;"/><line style="stroke:#181818;stroke-width:1.0;" x1="153.2583" x2="260.4429" y1="287.2266" y2="287.2266"/><text fill="#000000" font-family="sans-serif" font-size="13" lengthAdjust="spacing" textLength="81.269" x="165.2583" y="282.1606">ReadyToFire</text><polygon fill="#181818" points="136.2583,312.3594,146.2583,316.3594,136.2583,320.3594,140.2583,316.3594" style="stroke:#181818;stroke-width:1.0;"/><line style="stroke:#181818;stroke-width:1.0;" x1="42.6719" x2="142.2583" y1="316.3594" y2="316.3594"/><text fill="#000000" font-family="sans-serif" font-size="13" lengthAdjust="spacing" textLength="58.189" x="49.6719" y="311.2935">FlameOn</text><polygon fill="#181818" points="249.4429,341.4922,259.4429,345.4922,249.4429,349.4922,253.4429,345.4922" style="stroke:#181818;stroke-width:1.0;"/><line style="stroke:#181818;stroke-width:1.0;" x1="148.2583" x2="255.4429" y1="345.4922" y2="345.4922"/><text fill="#000000" font-family="sans-serif" font-size="13" lengthAdjust="spacing" textLength="24.4321" x="155.2583" y="340.4263">Fire</text><polygon fill="#181818" points="159.2583,370.625,149.2583,374.625,159.2583,378.625,155.2583,374.625" style="stroke:#181818;stroke-width:1.0;"/><line style="stroke:#181818;stroke-width:1.0;" x1="153.2583" x2="260.4429" y1="374.625" y2="374.625"/><text fill="#000000" font-family="sans-serif" font-size="13" lengthAdjust="spacing" textLength="89.1846" x="165.2583" y="369.5591">Fire == TRUE</text><polygon fill="#181818" points="249.4429,399.7578,259.4429,403.7578,249.4429,407.7578,253.4429,403.7578" style="stroke:#181818;stroke-width:1.0;"/><line style="stroke:#181818;stroke-width:1.0;" x1="148.2583" x2="255.4429" y1="403.7578" y2="403.7578"/><text fill="#000000" font-family="sans-serif" font-size="13" lengthAdjust="spacing" textLength="36.8989" x="155.2583" y="398.6919">Reset</text><!--SRC=[VO_B2eCm44Nt-Oe1r_q1mK8jjSkA3xeUara4KoEJIF7lwmChGjFjFNFFpA3qbk5E3G-w9OPe96FiM_J8NalTO-UXTiGLkXQYnWnqGEdWLiAaXDWrf_FUYg7qKoLdAyavySsdcQqUmqMfAtAZbTYoesA5qzIy9wXueYSE61RsLv2YCRb1IQ4Z2a8rLZRJJE5dCuClUdI17Kltjtr6a2HG5VKjT691Zlm7]--></g></svg>