<svg xmlns="http://www.w3.org/2000/svg" xmlns:xlink="http://www.w3.org/1999/xlink" contentStyleType="text/css" height="954px" preserveAspectRatio="none" style="width:366px;height:954px;" version="1.1" viewBox="0 0 366 954" width="366px" zoomAndPan="magnify"><defs/><g><ellipse cx="26.21" cy="32.14" fill="#222222" rx="10" ry="10" style="stroke:#222222;stroke-width:1.0;"/><g id="Init"><rect fill="#F1F1F1" height="50.2656" rx="12.5" ry="12.5" style="stroke:#181818;stroke-width:0.5;" width="87.418" x="134.5" y="7"/><line style="stroke:#181818;stroke-width:0.5;" x1="134.5" x2="221.918" y1="33.2969" y2="33.2969"/><text fill="#000000" font-family="sans-serif" font-size="14" lengthAdjust="spacing" textLength="22.3809" x="167.0186" y="24.9951">Init</text><text fill="#000000" font-family="sans-serif" font-size="12" lengthAdjust="spacing" textLength="67.418" x="139.5" y="49.4355">Initial state</text></g><g id="AddingCarbid"><rect fill="#F1F1F1" height="50.2656" rx="12.5" ry="12.5" style="stroke:#181818;stroke-width:0.5;" width="144.418" x="17" y="134.27"/><line style="stroke:#181818;stroke-width:0.5;" x1="17" x2="161.418" y1="160.5669" y2="160.5669"/><text fill="#000000" font-family="sans-serif" font-size="14" lengthAdjust="spacing" textLength="94.7734" x="41.8223" y="152.2651">AddingCarbid</text><text fill="#000000" font-family="sans-serif" font-size="12" lengthAdjust="spacing" textLength="124.418" x="22" y="176.7055">Adding carbid to bus</text></g><g id="AddingWater"><rect fill="#F1F1F1" height="50.2656" rx="12.5" ry="12.5" style="stroke:#181818;stroke-width:0.5;" width="141.1543" x="20.63" y="261.54"/><line style="stroke:#181818;stroke-width:0.5;" x1="20.63" x2="161.7843" y1="287.8369" y2="287.8369"/><text fill="#000000" font-family="sans-serif" font-size="14" lengthAdjust="spacing" textLength="91.2803" x="45.567" y="279.5351">AddingWater</text><text fill="#000000" font-family="sans-serif" font-size="12" lengthAdjust="spacing" textLength="121.1543" x="25.63" y="303.9755">Adding water to bus</text></g><g id="PlacingBall"><rect fill="#F1F1F1" height="50.2656" rx="12.5" ry="12.5" style="stroke:#181818;stroke-width:0.5;" width="128.5742" x="34.92" y="388.8"/><line style="stroke:#181818;stroke-width:0.5;" x1="34.92" x2="163.4942" y1="415.0969" y2="415.0969"/><text fill="#000000" font-family="sans-serif" font-size="14" lengthAdjust="spacing" textLength="76.2207" x="61.0968" y="406.7951">PlacingBall</text><text fill="#000000" font-family="sans-serif" font-size="12" lengthAdjust="spacing" textLength="108.5742" x="39.92" y="431.2355">Placing ball in bus</text></g><g id="WaitingForFlame"><rect fill="#F1F1F1" height="50.2656" rx="12.5" ry="12.5" style="stroke:#181818;stroke-width:0.5;" width="206.416" x="7" y="516.07"/><line style="stroke:#181818;stroke-width:0.5;" x1="7" x2="213.416" y1="542.3669" y2="542.3669"/><text fill="#000000" font-family="sans-serif" font-size="14" lengthAdjust="spacing" textLength="118.5967" x="50.9097" y="534.0651">WaitingForFlame</text><text fill="#000000" font-family="sans-serif" font-size="12" lengthAdjust="spacing" textLength="186.416" x="12" y="558.5055">Waiting for flame to start firing</text></g><g id="Firing"><rect fill="#F1F1F1" height="50.2656" rx="12.5" ry="12.5" style="stroke:#181818;stroke-width:0.5;" width="122.1289" x="56.14" y="643.33"/><line style="stroke:#181818;stroke-width:0.5;" x1="56.14" x2="178.2689" y1="669.6269" y2="669.6269"/><text fill="#000000" font-family="sans-serif" font-size="14" lengthAdjust="spacing" textLength="39.3477" x="97.5306" y="661.3251">Firing</text><text fill="#000000" font-family="sans-serif" font-size="12" lengthAdjust="spacing" textLength="102.1289" x="61.14" y="685.7655">Shooting the ball</text></g><g id="CheckingAfterShot"><rect fill="#F1F1F1" height="50.2656" rx="12.5" ry="12.5" style="stroke:#181818;stroke-width:0.5;" width="168.0371" x="44.19" y="770.6"/><line style="stroke:#181818;stroke-width:0.5;" x1="44.19" x2="212.2271" y1="796.8969" y2="796.8969"/><text fill="#000000" font-family="sans-serif" font-size="14" lengthAdjust="spacing" textLength="130.8945" x="62.7613" y="788.5951">CheckingAfterShot</text><text fill="#000000" font-family="sans-serif" font-size="12" lengthAdjust="spacing" textLength="148.0371" x="49.19" y="813.0355">Checking bus after firing</text></g><g id="RetrievingBall"><rect fill="#F1F1F1" height="50.2656" rx="12.5" ry="12.5" style="stroke:#181818;stroke-width:0.5;" width="197.9727" x="98.22" y="897.86"/><line style="stroke:#181818;stroke-width:0.5;" x1="98.22" x2="296.1927" y1="924.1569" y2="924.1569"/><text fill="#000000" font-family="sans-serif" font-size="14" lengthAdjust="spacing" textLength="97.9863" x="148.2132" y="915.8551">RetrievingBall</text><text fill="#000000" font-family="sans-serif" font-size="12" lengthAdjust="spacing" textLength="177.9727" x="103.22" y="940.2955">Retrieving the ball after firing</text></g><!--link *start* to Init--><g id="link_*start*_Init"><path d="M36.66,32.14 C56.44,32.14 94.42,32.14 128.14,32.14 " fill="none" id="*start*-to-Init" style="stroke:#181818;stroke-width:1.0;"/><polygon fill="#181818" points="134.14,32.14,125.14,28.14,129.14,32.14,125.14,36.14,134.14,32.14" style="stroke:#181818;stroke-width:1.0;"/><text fill="#000000" font-family="sans-serif" font-size="13" lengthAdjust="spacing" textLength="62.3721" x="54.35" y="25.2069">Power On</text></g><!--link Init to AddingCarbid--><g id="link_Init_AddingCarbid"><path d="M134.37,47.7 C116.09,56.19 96.7,68.93 86.21,87.27 C78.23,101.22 77.9823,113.4508 80.8023,127.9208 " fill="none" id="Init-to-AddingCarbid" style="stroke:#181818;stroke-width:1.0;"/><polygon fill="#181818" points="81.95,133.81,84.1546,124.211,80.9936,128.9023,76.3023,125.7413,81.95,133.81" style="stroke:#181818;stroke-width:1.0;"/><text fill="#000000" font-family="sans-serif" font-size="13" lengthAdjust="spacing" textLength="152.8452" x="87.21" y="100.3369">Start Process Triggered</text></g><!--link AddingCarbid to AddingWater--><g id="link_AddingCarbid_AddingWater"><path d="M89.6,184.85 C89.95,206.93 90.3748,233.2308 90.7248,255.2808 " fill="none" id="AddingCarbid-to-AddingWater" style="stroke:#181818;stroke-width:1.0;"/><polygon fill="#181818" points="90.82,261.28,94.6767,252.2176,90.7406,256.2806,86.6777,252.3446,90.82,261.28" style="stroke:#181818;stroke-width:1.0;"/><text fill="#000000" font-family="sans-serif" font-size="13" lengthAdjust="spacing" textLength="88.2832" x="92.21" y="227.6069">Carbid Added</text></g><!--link AddingWater to PlacingBall--><g id="link_AddingWater_PlacingBall"><path d="M92.77,312.12 C94.18,334.19 95.8573,360.5022 97.2673,382.5622 " fill="none" id="AddingWater-to-PlacingBall" style="stroke:#181818;stroke-width:1.0;"/><polygon fill="#181818" points="97.65,388.55,101.0678,379.3132,97.3311,383.5602,93.0841,379.8235,97.65,388.55" style="stroke:#181818;stroke-width:1.0;"/><text fill="#000000" font-family="sans-serif" font-size="13" lengthAdjust="spacing" textLength="85.0396" x="97.21" y="354.8669">Water Added</text></g><!--link PlacingBall to WaitingForFlame--><g id="link_PlacingBall_WaitingForFlame"><path d="M101.36,439.38 C103.29,461.46 105.6041,487.7831 107.5441,509.8331 " fill="none" id="PlacingBall-to-WaitingForFlame" style="stroke:#181818;stroke-width:1.0;"/><polygon fill="#181818" points="108.07,515.81,111.2658,506.4941,107.6318,510.8292,103.2966,507.1952,108.07,515.81" style="stroke:#181818;stroke-width:1.0;"/><text fill="#000000" font-family="sans-serif" font-size="13" lengthAdjust="spacing" textLength="71.0557" x="107.21" y="482.1369">Ball Placed</text></g><!--link WaitingForFlame to Firing--><g id="link_WaitingForFlame_Firing"><path d="M111.57,566.65 C112.81,588.72 114.2733,615.0295 115.5133,637.0895 " fill="none" id="WaitingForFlame-to-Firing" style="stroke:#181818;stroke-width:1.0;"/><polygon fill="#181818" points="115.85,643.08,119.3386,633.8697,115.5694,638.0879,111.3512,634.3187,115.85,643.08" style="stroke:#181818;stroke-width:1.0;"/><text fill="#000000" font-family="sans-serif" font-size="13" lengthAdjust="spacing" textLength="103.4478" x="115.21" y="609.3969">Flame Detected</text></g><!--link Firing to CheckingAfterShot--><g id="link_Firing_CheckingAfterShot"><path d="M119.36,693.92 C121.29,715.99 123.6041,742.3131 125.5441,764.3631 " fill="none" id="Firing-to-CheckingAfterShot" style="stroke:#181818;stroke-width:1.0;"/><polygon fill="#181818" points="126.07,770.34,129.2658,761.0241,125.6318,765.3592,121.2966,761.7252,126.07,770.34" style="stroke:#181818;stroke-width:1.0;"/><text fill="#000000" font-family="sans-serif" font-size="13" lengthAdjust="spacing" textLength="99.4678" x="125.21" y="736.6669">Fire Completed</text></g><!--link CheckingAfterShot to RetrievingBall--><g id="link_CheckingAfterShot_RetrievingBall"><path d="M124.89,821.36 C124.08,835.66 125.03,853.61 132.21,867.86 C138.02,879.41 142.8669,885.6098 152.8369,893.7698 " fill="none" id="CheckingAfterShot-to-RetrievingBall" style="stroke:#181818;stroke-width:1.0;"/><polygon fill="#181818" points="157.48,897.57,153.0488,888.7743,153.6107,894.4032,147.9819,894.9651,157.48,897.57" style="stroke:#181818;stroke-width:1.0;"/><text fill="#000000" font-family="sans-serif" font-size="13" lengthAdjust="spacing" textLength="106.7739" x="133.21" y="863.9269">Check Complete</text></g><!--link RetrievingBall to Init--><g id="link_RetrievingBall_Init"><path d="M222.29,897.5 C230.17,888.74 238.34,878.42 244.21,867.86 C260.29,838.94 266.21,829.82 266.21,796.73 C266.21,158.4 266.21,158.4 266.21,158.4 C266.21,125.31 262.67,114.73 244.21,87.27 C236.68,76.08 230.8583,69.7443 220.4283,61.4143 " fill="none" id="RetrievingBall-to-Init" style="stroke:#181818;stroke-width:1.0;"/><polygon fill="#181818" points="215.74,57.67,220.2762,66.412,219.6469,60.7903,225.2686,60.161,215.74,57.67" style="stroke:#181818;stroke-width:1.0;"/><text fill="#000000" font-family="sans-serif" font-size="13" lengthAdjust="spacing" textLength="91.2666" x="267.21" y="482.1369">Ball Retrieved</text></g><!--SRC=[RLAzJiCm4Dxz53SZvGKw845H9IOgYjG1CRZE9R7gsfLzfGFYtJd_D6aSiaJt_Ppj-ouSjJrBBqzmaEhOUtUnhNB6UI0lRM0ABGdn-V05ZTVzGCqZl5fDi8AjkwA7DojItJ3nrBRQzclf3xfbmOwa9zXwfp04-61xZnvRCPDDlhqaxhU2GZ0uQZCLfLiZ5GFFqXYMPZmhxvcet4jDN6-StnXvGbOdAifONRFHiT6U8HPcw0K95R6su56o7b3nnFgdZW_U3IxEWMc4jJkT3KRrKXADxqXUu_TqzIGRRQBYcsdCgIuqjnU1-D6P_170Nz75dvO64Yz-RyBPiBEXYYcNe79D3WwNKFlpeE_jjxIA-vhAsdoVIJRFyoiLxnwNsixDTKIvmJBMWa37IzibZAyHqkvrARcfPKaoTnhZvf1Swa03fgjCXcMOsVlV7jom-0gGaLYSNwMSUorMOmB66rNz_W00]--></g></svg>