<svg xmlns="http://www.w3.org/2000/svg" xmlns:xlink="http://www.w3.org/1999/xlink" contentStyleType="text/css" height="713px" preserveAspectRatio="none" style="width:413px;height:713px;" version="1.1" viewBox="0 0 413 713" width="413px" zoomAndPan="magnify"><defs/><g><ellipse cx="24.5" cy="32.13" fill="#222222" rx="10" ry="10" style="stroke:#222222;stroke-width:1.0;"/><g id="WaitingForCarbid"><rect fill="#F1F1F1" height="50.2656" rx="12.5" ry="12.5" style="stroke:#181818;stroke-width:0.5;" width="165.9629" x="132.52" y="7"/><line style="stroke:#181818;stroke-width:0.5;" x1="132.52" x2="298.4829" y1="33.2969" y2="33.2969"/><text fill="#000000" font-family="sans-serif" font-size="14" lengthAdjust="spacing" textLength="121.5977" x="154.7026" y="24.9951">WaitingForCarbid</text><text fill="#000000" font-family="sans-serif" font-size="12" lengthAdjust="spacing" textLength="145.9629" x="137.52" y="49.4355">Awaiting carbid addition</text></g><g id="WaitingForWater"><rect fill="#F1F1F1" height="50.2656" rx="12.5" ry="12.5" style="stroke:#181818;stroke-width:0.5;" width="162.6992" x="56.15" y="134.26"/><line style="stroke:#181818;stroke-width:0.5;" x1="56.15" x2="218.8492" y1="160.5569" y2="160.5569"/><text fill="#000000" font-family="sans-serif" font-size="14" lengthAdjust="spacing" textLength="118.1045" x="78.4474" y="152.2551">WaitingForWater</text><text fill="#000000" font-family="sans-serif" font-size="12" lengthAdjust="spacing" textLength="142.6992" x="61.15" y="176.6955">Awaiting water addition</text></g><g id="GasFormation"><rect fill="#F1F1F1" height="64.2344" rx="12.5" ry="12.5" style="stroke:#181818;stroke-width:0.5;" width="149.6152" x="33.7" y="261.53"/><line style="stroke:#181818;stroke-width:0.5;" x1="33.7" x2="183.3152" y1="287.8269" y2="287.8269"/><text fill="#000000" font-family="sans-serif" font-size="14" lengthAdjust="spacing" textLength="98.1299" x="59.4427" y="279.5251">GasFormation</text><text fill="#000000" font-family="sans-serif" font-size="12" lengthAdjust="spacing" textLength="126.9082" x="38.7" y="303.9655">Gas is forming in bus</text><text fill="#000000" font-family="sans-serif" font-size="12" lengthAdjust="spacing" textLength="129.6152" x="38.7" y="317.9343">Timed for 10 seconds</text></g><g id="ReadyToFire"><rect fill="#F1F1F1" height="50.2656" rx="12.5" ry="12.5" style="stroke:#181818;stroke-width:0.5;" width="209.0059" x="7" y="402.76"/><line style="stroke:#181818;stroke-width:0.5;" x1="7" x2="216.0059" y1="429.0569" y2="429.0569"/><text fill="#000000" font-family="sans-serif" font-size="14" lengthAdjust="spacing" textLength="87.5205" x="67.7427" y="420.7551">ReadyToFire</text><text fill="#000000" font-family="sans-serif" font-size="12" lengthAdjust="spacing" textLength="189.0059" x="12" y="445.1955">Ready to fire, blinking indicator</text></g><g id="Fired"><rect fill="#F1F1F1" height="50.2656" rx="12.5" ry="12.5" style="stroke:#181818;stroke-width:0.5;" width="106.9531" x="83.03" y="530.03"/><line style="stroke:#181818;stroke-width:0.5;" x1="83.03" x2="189.9831" y1="556.3269" y2="556.3269"/><text fill="#000000" font-family="sans-serif" font-size="14" lengthAdjust="spacing" textLength="35.1982" x="118.9074" y="548.0251">Fired</text><text fill="#000000" font-family="sans-serif" font-size="12" lengthAdjust="spacing" textLength="86.9531" x="88.03" y="572.4655">Firing the shot</text></g><g id="CleaningUp"><rect fill="#F1F1F1" height="50.2656" rx="12.5" ry="12.5" style="stroke:#181818;stroke-width:0.5;" width="121.3613" x="145.82" y="657.29"/><line style="stroke:#181818;stroke-width:0.5;" x1="145.82" x2="267.1813" y1="683.5869" y2="683.5869"/><text fill="#000000" font-family="sans-serif" font-size="14" lengthAdjust="spacing" textLength="80.5137" x="166.2438" y="675.2851">CleaningUp</text><text fill="#000000" font-family="sans-serif" font-size="12" lengthAdjust="spacing" textLength="101.3613" x="150.82" y="699.7255">Removing debris</text></g><!--link *start* to WaitingForCarbid--><g id="link_*start*_WaitingForCarbid"><path d="M34.77,32.13 C53.37,32.13 88.24,32.13 126.42,32.13 " fill="none" id="*start*-to-WaitingForCarbid" style="stroke:#181818;stroke-width:1.0;"/><polygon fill="#181818" points="132.42,32.13,123.42,28.13,127.42,32.13,123.42,36.13,132.42,32.13" style="stroke:#181818;stroke-width:1.0;"/><text fill="#000000" font-family="sans-serif" font-size="13" lengthAdjust="spacing" textLength="62.3721" x="52.51" y="25.1969">Power On</text></g><!--link WaitingForCarbid to WaitingForWater--><g id="link_WaitingForCarbid_WaitingForWater"><path d="M185.54,57.58 C176.49,66.19 167.19,76.43 160.5,87.26 C151.71,101.51 147.3923,113.6384 143.8223,127.9484 " fill="none" id="WaitingForCarbid-to-WaitingForWater" style="stroke:#181818;stroke-width:1.0;"/><polygon fill="#181818" points="142.37,133.77,148.4296,126.0059,143.5803,128.9187,140.6675,124.0694,142.37,133.77" style="stroke:#181818;stroke-width:1.0;"/><text fill="#000000" font-family="sans-serif" font-size="13" lengthAdjust="spacing" textLength="88.2832" x="161.5" y="100.3269">Carbid Added</text></g><!--link WaitingForWater to GasFormation--><g id="link_WaitingForWater_GasFormation"><path d="M132.12,184.96 C127.4,206.47 121.8056,231.9994 116.6856,255.3394 " fill="none" id="WaitingForWater-to-GasFormation" style="stroke:#181818;stroke-width:1.0;"/><polygon fill="#181818" points="115.4,261.2,121.2355,253.2661,116.4714,256.3161,113.4213,251.5519,115.4,261.2" style="stroke:#181818;stroke-width:1.0;"/><text fill="#000000" font-family="sans-serif" font-size="13" lengthAdjust="spacing" textLength="85.0396" x="127.5" y="227.5969">Water Added</text></g><!--link GasFormation to ReadyToFire--><g id="link_GasFormation_ReadyToFire"><path d="M102.36,326.19 C100.34,340.42 98.96,357.44 100.5,372.76 C101.49,382.59 102.2033,387.4052 104.2033,396.6652 " fill="none" id="GasFormation-to-ReadyToFire" style="stroke:#181818;stroke-width:1.0;"/><polygon fill="#181818" points="105.47,402.53,107.4798,392.8884,104.4144,397.6427,99.6601,394.5773,105.47,402.53" style="stroke:#181818;stroke-width:1.0;"/><text fill="#000000" font-family="sans-serif" font-size="13" lengthAdjust="spacing" textLength="131.9043" x="101.5" y="368.8269">Enough Gas Formed</text></g><!--link ReadyToFire to Fired--><g id="link_ReadyToFire_Fired"><path d="M116.38,453.35 C120.79,475.42 126.0533,501.8365 130.4633,523.8865 " fill="none" id="ReadyToFire-to-Fired" style="stroke:#181818;stroke-width:1.0;"/><polygon fill="#181818" points="131.64,529.77,133.7973,520.1603,130.6594,524.8671,125.9526,521.7292,131.64,529.77" style="stroke:#181818;stroke-width:1.0;"/><text fill="#000000" font-family="sans-serif" font-size="13" lengthAdjust="spacing" textLength="91.5586" x="126.5" y="496.0969">Fire Triggered</text></g><!--link Fired to CleaningUp--><g id="link_Fired_CleaningUp"><path d="M137.21,580.46 C138.51,594.82 141.74,612.94 149.5,627.29 C155.48,638.34 160.1069,644.3649 169.2369,652.7749 " fill="none" id="Fired-to-CleaningUp" style="stroke:#181818;stroke-width:1.0;"/><polygon fill="#181818" points="173.65,656.84,169.7404,647.8004,169.9724,653.4524,164.3203,653.6845,173.65,656.84" style="stroke:#181818;stroke-width:1.0;"/><text fill="#000000" font-family="sans-serif" font-size="13" lengthAdjust="spacing" textLength="99.4678" x="150.5" y="623.3569">Fire Completed</text></g><!--link CleaningUp to WaitingForCarbid--><g id="link_CleaningUp_WaitingForCarbid"><path d="M232.13,657.01 C240.19,648.25 248.53,637.91 254.5,627.29 C270.74,598.46 276.5,589.25 276.5,556.16 C276.5,158.4 276.5,158.4 276.5,158.4 C276.5,120.18 256.8353,86.2458 239.0453,62.1658 " fill="none" id="CleaningUp-to-WaitingForCarbid" style="stroke:#181818;stroke-width:1.0;"/><polygon fill="#181818" points="235.48,57.34,237.6107,66.9556,238.4511,61.3615,244.0451,62.2019,235.48,57.34" style="stroke:#181818;stroke-width:1.0;"/><text fill="#000000" font-family="sans-serif" font-size="13" lengthAdjust="spacing" textLength="128.4194" x="277.5" y="368.8269">Cleanup Completed</text></g><!--SRC=[RP51JyCm38Nl-HK-8oh1TGUaQM8ScQQX7H27jCbQQsrS9IaLGlntx8RHTbrFZT_d5-SvdD6rski6SbsSIq-TCmNLv25wxG9BraMbtky-8FDOLZ5xWgF6YAxSajzedwE15UoejnvUdLfesQpXg2DpA_WJryPOewvbQNdHWS-DZaYE-IGaV2O9kxVQV1reYzuo-koeAoin0C6uOQeBBpyoz50uyAjAomMLoW9iQgiTJ_JMNgWDDMrj8rCJBRkTnK1qxQH7XSZpBzbl1VpTi5ZtgGP5gcXZK9whVfPUAPfhgqlG_qxzK5WQpT9CBbVPIv8OuCGbCK87UHTkWGVaj8M3nmS8jY1dmdZHT0lfdldUXXD4WXEVxo6lqPtJVGOB7ScFLcbJoMIoJA5ZPI5K54Tuih3KCTlktZRqAOt6vXvvt5y0]--></g></svg>